Coordinates
version=1
nRows=16
nColumns=36
inDegrees=yes

Units are S.I. units (second, meters, Newtons, ...)
If the header above contains a line with 'inDegrees', this indicates whether rotational values are in degrees (yes) or radians (no).

endheader
time	pelvis_tilt	pelvis_list	pelvis_rotation	pelvis_tx	pelvis_ty	pelvis_tz	hip_flexion_r	hip_adduction_r	hip_rotation_r	knee_angle_r	knee_angle_r_beta	ankle_angle_r	subtalar_angle_r	mtp_angle_r	hip_flexion_l	hip_adduction_l	hip_rotation_l	knee_angle_l	knee_angle_l_beta	ankle_angle_l	subtalar_angle_l	mtp_angle_l	lumbar_extension	lumbar_bending	lumbar_rotation	arm_flex_r	arm_add_r	arm_rot_r	elbow_flex_r	pro_sup_r	arm_flex_l	arm_add_l	arm_rot_l	elbow_flex_l	pro_sup_l
      1.27000000	     -6.21566437	     -5.76814164	      0.34818278	      1.17235688	      1.11401604	     -0.22540291	     24.94880055	      6.18871990	     -2.86478361	     20.41211811	      0.35625867	      6.78073883	    -10.99105053	     -7.49999875	     -4.25922737	     -1.90148912	     -6.69414685	      0.82903848	      0.01446945	      8.64989689	      0.85329461	     -7.49999875	    -15.53132780	    -12.27979858	    -13.79791426	     -8.65906085	    -10.83239064	      2.80013404	     27.28653670	     84.53090909	      6.65871870	    -13.06633833	    -14.64543244	     41.20417155	     88.55576469
      1.28000000	     -6.54513699	     -5.62050344	      0.19592151	      1.18089541	      1.11228936	     -0.22478672	     25.42866024	      6.34059842	     -2.60583044	     18.47939273	      0.32252625	      7.17809484	    -10.21258325	     -7.49999881	     -4.35026830	     -1.70799275	     -6.53364861	      0.89539305	      0.01562756	      9.04077273	      1.01827439	     -7.49999881	    -15.23910129	    -12.21701817	    -13.81186907	     -8.79965611	    -10.87656178	      2.87754207	     27.75066129	     84.12194305	      6.27515364	    -12.98689161	    -14.60994687	     41.54578525	     88.15848522
      1.29000000	     -6.84191697	     -5.45563605	      0.13490919	      1.18975200	      1.11086465	     -0.22415136	     25.82030715	      6.45191473	     -2.56730936	     16.52645648	      0.28844108	      7.44801175	     -9.25879635	     -7.49999885	     -4.45457665	     -1.51584534	     -6.29349975	      0.97847618	      0.01707763	      9.49771476	      1.31175126	     -7.49999885	    -14.96203864	    -12.15421910	    -13.90960696	     -8.88631767	    -10.80046518	      2.60903036	     27.98856548	     84.17238972	      5.91291544	    -12.92579979	    -14.70752662	     41.65029544	     88.29409881
      1.30000000	     -7.17546999	     -5.24003592	      0.06305720	      1.19881478	      1.10957372	     -0.22359327	     26.21946602	      6.52682619	     -2.63167411	     14.59671846	      0.25476080	      7.81639814	     -7.97312271	     -7.49999908	     -4.51586116	     -1.27633523	     -6.05154851	      1.05774994	      0.01846122	     10.00187089	      1.58877914	     -7.49999908	    -14.68703729	    -12.10858005	    -13.87546774	     -9.11312936	    -10.54610104	      1.09419762	     28.38073249	     86.44957387	      5.60885172	    -12.70966911	    -15.34594639	     41.72803637	     91.15901827
      1.31000000	     -7.43579750	     -5.03334523	     -0.01371716	      1.20815356	      1.10856676	     -0.22336672	     26.49089335	      6.64348184	     -2.59625067	     12.69967209	      0.22165109	      7.94944969	     -7.00122244	     -7.49999915	     -4.65143878	     -1.04853664	     -5.73197215	      1.16372251	      0.02031079	     10.52961847	      1.69607518	     -7.49999915	    -14.46515043	    -12.03909827	    -13.91751369	     -9.19900321	    -10.50936465	      1.17601836	     28.71151174	     85.88275629	      5.20449874	    -12.66359509	    -15.11221351	     41.73148177	     90.32010158
      1.32000000	     -7.69131547	     -4.78108660	     -0.09436379	      1.21771725	      1.10770245	     -0.22359372	     26.74232730	      6.69588958	     -2.73476251	     10.93603761	      0.19086986	      8.17476777	     -5.80621987	     -7.49999923	     -4.81002195	     -0.77559324	     -5.52184544	      1.25233587	      0.02185738	     11.08102764	      1.96225907	     -7.49999923	    -14.25058667	    -11.95448822	    -13.86344255	     -9.31732162	    -10.38395701	      0.55819871	     29.06860055	     86.01333225	      4.86042277	    -12.51384081	    -15.11892907	     41.62597009	     90.39485871
      1.33000000	     -7.80718372	     -4.55165446	     -0.12135671	      1.22753042	      1.10718313	     -0.22442249	     26.79282860	      6.74003599	     -3.00724104	      9.27724102	      0.16191840	      8.39528844	     -4.63045249	     -7.49999935	     -5.12448706	     -0.52582954	     -5.16674566	      1.36122931	      0.02375793	     11.61807324	      2.03007767	     -7.49999935	    -14.25971662	    -11.77785625	    -13.76159403	     -9.52934942	    -10.29484839	     -0.23851807	     29.75730519	     86.58826941	      4.61884504	    -12.28758556	    -15.16385619	     41.45301031	     91.02425252
      1.34000000	     -7.86741479	     -4.33284789	     -0.14357340	      1.23752731	      1.10684766	     -0.22562620	     26.76330787	      6.78975716	     -3.19115576	      7.81163750	      0.13633879	      8.37542155	     -3.92440091	     -7.49999940	     -5.55161569	     -0.27926136	     -4.66720379	      1.40202619	      0.02446997	     11.91683389	      1.87845429	     -7.49999940	    -14.28016687	    -11.55723017	    -13.70138246	     -9.51046068	    -10.41897186	      0.25091715	     30.11310685	     86.02774231	      4.32174638	    -12.16381210	    -14.67349096	     41.19872170	     90.16885822
      1.35000000	     -7.92697719	     -4.12126243	     -0.20442130	      1.24769026	      1.10651449	     -0.22694727	     26.74360534	      6.83911577	     -3.48699510	      6.63569838	      0.11581478	      8.38374292	     -3.12309437	     -7.49999944	     -5.98067843	     -0.03665877	     -4.43807390	      1.49329017	      0.02606283	     12.38252199	      2.08045009	     -7.49999944	    -14.25368761	    -11.30818569	    -13.53434660	     -9.47086574	    -10.42473537	      0.02690213	     30.32420625	     85.65227455	      4.08337573	    -11.90499386	    -14.50020169	     40.78208579	     89.69455159
      1.36000000	     -7.94057788	     -3.94267895	     -0.25432356	      1.25792921	      1.10612298	     -0.22826733	     26.65798281	      6.91101473	     -3.75524219	      5.70096077	      0.09950054	      8.25724589	     -2.50748814	     -7.49999950	     -6.47357099	      0.17384511	     -4.20275517	      1.59289962	      0.02780134	     12.78871000	      2.23191702	     -7.49999950	    -14.29006881	    -10.98419635	    -13.24513400	     -9.44903189	    -10.38785788	     -0.69339778	     30.49500639	     85.63579667	      3.92284977	    -11.54326196	    -14.48395542	     40.37867668	     89.80076921
      1.37000000	     -7.98437213	     -3.81533686	     -0.30109408	      1.26824254	      1.10547094	     -0.22936748	     26.59569583	      7.02799294	     -3.97156501	      5.03215186	      0.08782762	      7.98394505	     -2.21713164	     -7.49999950	     -6.92971422	      0.33044466	     -3.90133695	      1.73149932	      0.03022036	     13.06561602	      2.17218232	     -7.49999950	    -14.24216510	    -10.61177426	    -13.10049853	     -9.32661301	    -10.50519193	     -0.75128594	     30.65482097	     85.68914290	      3.56489375	    -11.25397118	    -14.46374697	     40.08332069	     89.88317747
      1.38000000	     -7.78520388	     -3.77154921	     -0.29958597	      1.27847247	      1.10484993	     -0.23030602	     26.24953058	      7.19007600	     -4.31679168	      4.59859264	      0.08026058	      7.79047851	     -1.71601085	     -7.49999951	     -7.66172120	      0.39473077	     -3.56152325	      1.86065009	      0.03247447	     13.27173785	      2.06216370	     -7.49999951	    -14.48133881	    -10.09664818	    -12.89302412	     -9.21000414	    -10.64159398	     -0.91267235	     30.91710921	     85.81713699	      3.44985767	    -10.90746179	    -14.52677346	     39.47370829	     90.09466405
      1.39000000	     -7.80292608	     -3.74060094	     -0.36493206	      1.28877048	      1.10347862	     -0.23082941	     26.13999581	      7.38574197	     -4.45795612	      4.42807311	      0.07728446	      7.43646307	     -1.55960184	     -7.49999952	     -8.14399319	      0.44281796	     -3.38563875	      2.05722000	      0.03590526	     13.45101748	      1.99285505	     -7.49999952	    -14.35912782	     -9.60638562	    -12.68138922	     -9.08862437	    -10.78863915	     -1.00433254	     31.04116612	     85.82487266	      3.07709603	    -10.60482352	    -14.49623399	     39.17481044	     90.13985205
      1.40000000	     -7.62051731	     -3.75374144	     -0.36350573	      1.29894742	      1.10216567	     -0.23121792	     25.80958662	      7.57945841	     -4.60314711	      4.47496099	      0.07810280	      7.12097783	     -1.42750347	     -7.49999953	     -8.81814335	      0.43504260	     -3.13000519	      2.29259191	      0.04001328	     13.51123065	      1.83998670	     -7.49999953	    -14.55234686	     -9.05320353	    -12.38618243	     -9.06758491	    -10.94676075	     -1.23681632	     31.33950251	     85.88137286	      2.96191731	    -10.26941337	    -14.53617322	     38.49582364	     90.29361154
      1.41000000	     -7.64437632	     -3.75487405	     -0.40123986	      1.30921347	      1.10038829	     -0.23130167	     25.70953698	      7.75366086	     -4.66733670	      4.73977954	      0.08272476	      6.77817022	     -1.40134460	     -7.49999953	     -9.23782472	      0.43011998	     -3.01472997	      2.60080082	      0.04539254	     13.57068458	      1.76021338	     -7.49999953	    -14.38969247	     -8.53577994	    -12.19682732	     -8.99460659	    -11.11483318	     -1.33815986	     31.48660231	     85.85745727	      2.52616438	    -10.00186822	    -14.49649520	     38.21013825	     90.29649839
      1.42000000	     -7.52505725	     -3.77013780	     -0.36695844	      1.31949995	      1.09896136	     -0.23131835	     25.41865040	      7.89920083	     -4.62114392	      5.09190051	      0.08887043	      6.33210107	     -1.59467478	     -7.49999954	     -9.77099299	      0.39170512	     -2.77099533	      2.97326967	      0.05189335	     13.48432756	      1.53675394	     -7.49999954	    -14.43792704	     -7.96908229	    -11.94565180	     -9.06269871	    -11.26532165	     -1.60303162	     31.88941065	     85.86870813	      2.36009132	     -9.71606793	    -14.52468861	     37.49187038	     90.35732899
